# xmcd
#
# Track frame offsets: 
#        150
#        24513
#        61667
#        95205
#        116019
#        132040
#        153165
#        175676
#        205855
#        240590
#
# Disc length: 3779 seconds
#
# Revision: 0
# Processed by: cddbd v1.5.2PL0 Copyright (c) Steve Scherf et al.
# Submitted via: ExactAudioCopyFreeDBPlugin 1.0
#
DISCID=790ec10a
DTITLE=The King Bees - Big Buzz...Live!
DYEAR=2007
DGENRE=Blues
TTITLE0=Monkeyshines
TTITLE1=You Was Wrong - Cissy Strut
TTITLE2=Pomade and Cologne
TTITLE3=Have Mercy Baby
TTITLE4=Can't Be Satisfied
TTITLE5=Roll, Roll, Roll
TTITLE6=Sugar Papa
TTITLE7=Send Me To The Jailhouse
TTITLE8=Before You 'Cuse Me
TTITLE9=Crossroads Blues
EXTD=
EXTT0=
EXTT1=
EXTT2=
EXTT3=
EXTT4=
EXTT5=
EXTT6=
EXTT7=
EXTT8=
EXTT9=
PLAYORDER=
